# xmcd
#
# Track frame offsets:
#	150
#	16890
#	41400
#	54741
#	65885
#	83650
#	96090
#	110220
#	122605
#	143250
#	153815
#
# Disc length: 2264 seconds
#
# Revision: 1
# Processed by: cddbd v1.5PL3 Copyright (c) Steve Scherf et al.
# Submitted via: EasyCDDAExtractor 6.5.2.1
#
DISCID=8808d60b
DTITLE=The Redwalls - Universal Blues
DYEAR=2004
DGENRE=Blues
TTITLE0=Colorful Revolution
TTITLE1=You'll Never Know
TTITLE2=It's Alright
TTITLE3=Speed Racer
TTITLE4=How The Story Goes
TTITLE5=It's Love You're On
TTITLE6=What A Shame
TTITLE7=Home
TTITLE8=Balinese
TTITLE9=I Just Want To Be The One
TTITLE10=Universal Blues
EXTD=
EXTT0=
EXTT1=
EXTT2=
EXTT3=
EXTT4=
EXTT5=
EXTT6=
EXTT7=
EXTT8=
EXTT9=
EXTT10=
PLAYORDER=
